<svg width="83" height="93" viewBox="0 0 83 93" fill="none" xmlns="http://www.w3.org/2000/svg">
<path d="M38.6456 91.5752L0 74.941V0H82.0355L82.0355 74.941L43.3899 91.5752C41.8756 92.227 40.1599 92.227 38.6456 91.5752Z" fill="#110E0D"/>
<path d="M6.50098 9.68805C6.46956 8.63906 7.21901 7.73156 8.24902 7.56403C8.32438 7.55856 8.40029 7.55857 8.47559 7.565L8.49707 7.56696H8.51855L41.0098 7.5484H73.3857L73.5977 7.56012C74.6415 7.66762 75.4647 8.53452 75.498 9.60797V67.1158L75.499 67.1295C75.5421 68.6891 74.5879 70.1018 73.1289 70.6422L73.1162 70.647L73.1025 70.6529L56.2207 78.0015L41.9219 84.2457H41.9209L41.9111 84.2505C41.3333 84.5189 40.6667 84.5188 40.0889 84.2505L40.0781 84.2457L8.93457 70.6431L8.92285 70.6382C7.68506 70.1345 6.79203 69.028 6.55957 67.7086L6.55762 67.6968L6.53223 67.5513C6.51058 67.4053 6.49977 67.2577 6.50098 67.1099V9.68805Z" fill="#030000" stroke="#FFD530"/>
<path d="M51.0195 28.283C49.945 30.6729 48.7573 33.006 47.6262 35.4242C46.4951 33.006 45.3074 30.7012 44.2328 28.2264C44.2328 28.3397 44.2328 28.3964 44.2328 28.4531C44.2894 30.6067 44.2328 32.751 44.2328 34.9047C44.2328 35.1125 44.1763 35.1503 43.9878 35.1408H42.0083C41.8575 35.1408 41.8104 35.1408 41.8104 34.9424C41.8104 31.1263 41.8104 27.3038 41.8104 23.475C41.8104 23.305 41.8104 23.2672 42.0272 23.2672C42.6964 23.2672 43.3751 23.2672 44.0537 23.2672C44.148 23.2672 44.2328 23.2672 44.28 23.39C45.3545 25.6571 46.5233 27.8769 47.5036 30.1817C47.5602 30.3139 47.6073 30.4462 47.6733 30.5879L47.7299 30.4839C48.6725 28.0752 49.8884 25.761 50.9536 23.4089C50.996 23.3033 51.1052 23.2408 51.2175 23.2578C51.8867 23.2578 52.5654 23.2578 53.2441 23.2578C53.4326 23.2578 53.4891 23.305 53.4891 23.5034C53.4891 25.5909 53.4891 27.669 53.4891 29.7566V34.9047C53.4891 35.0936 53.4891 35.1408 53.2629 35.1408H51.1986C51.029 35.1408 50.9818 35.1408 50.9818 34.9236C50.9818 32.7888 50.9818 30.654 50.9818 28.5192C50.9992 28.4413 51.0118 28.3624 51.0195 28.283Z" fill="#FFD530"/>
<path d="M28.5292 29.1898V23.5222C28.5292 23.3805 28.5292 23.2955 28.7083 23.2955C30.7631 23.2955 32.818 23.2955 34.8729 23.2955C35.9042 23.3102 36.89 23.723 37.6253 24.4479C38.4043 25.2654 38.7535 26.4029 38.5679 27.5178C38.5083 28.8514 37.641 30.0128 36.381 30.4461C36.2019 30.5216 36.2396 30.5878 36.3056 30.7106C37.0346 32.1086 37.7572 33.5066 38.4736 34.9046C38.5867 35.1313 38.5867 35.1407 38.3322 35.1407H35.9569C35.8108 35.1521 35.674 35.0683 35.6175 34.9329C34.9577 33.6388 34.2696 32.3447 33.6098 31.0601C33.5582 30.9269 33.4206 30.8481 33.2799 30.8711H31.2344C31.0459 30.8711 30.9799 30.8711 30.9799 31.1073C30.9799 32.3825 30.9799 33.6483 30.9799 34.8857C30.9799 35.0557 30.9799 35.1124 30.7631 35.1124C30.075 35.1124 29.3775 35.1124 28.6894 35.1124C28.5198 35.1124 28.4821 35.0652 28.4821 34.8951C28.5292 33.0154 28.5292 31.1073 28.5292 29.1898ZM32.884 28.623H34.1848C34.4379 28.6343 34.6915 28.612 34.9388 28.5569C35.4808 28.4742 35.9116 28.0576 36.0134 27.5178C36.1907 26.9465 36.0216 26.3239 35.5798 25.9215C35.2319 25.6723 34.8098 25.549 34.3827 25.572H31.1779C31.0553 25.572 31.0082 25.572 31.0082 25.742C31.0082 26.6488 31.0082 27.5556 31.0082 28.4624C31.0082 28.6041 31.0082 28.6419 31.1873 28.6419L32.884 28.623Z" fill="#FFD530"/>
<path d="M47.5978 53.1827V47.7418C47.5978 47.5434 47.6543 47.4962 47.8428 47.5056C49.6809 47.5056 51.5096 47.5056 53.3382 47.5056C54.1024 47.527 54.842 47.7807 55.459 48.233C56.0382 48.6524 56.4546 49.2599 56.6373 49.9522C56.8658 50.777 56.8462 51.6511 56.5807 52.4648C56.3223 53.3277 55.683 54.0241 54.8464 54.354C54.639 54.4484 54.6296 54.524 54.7238 54.7035C55.3836 56.0165 56.0246 57.3389 56.675 58.6613C56.7881 58.8786 56.7881 58.8786 56.5336 58.8786H54.4033C54.2634 58.8957 54.1303 58.8133 54.0829 58.6802L52.1977 54.968C52.1542 54.8416 52.0284 54.7628 51.896 54.7791C51.2676 54.7791 50.6392 54.7791 50.0108 54.7791C49.8506 54.7791 49.8035 54.779 49.8035 54.9869C49.8035 56.2148 49.8035 57.4428 49.8035 58.6708C49.8035 58.8219 49.8035 58.888 49.5961 58.8786C48.974 58.8786 48.3519 58.8786 47.7109 58.8786C47.5412 58.8786 47.5129 58.8219 47.5129 58.6613C47.6072 56.8288 47.5978 55.0058 47.5978 53.1827ZM51.5661 52.6348C52.0751 52.6348 52.5935 52.6348 53.1025 52.6348C53.4377 52.6528 53.7661 52.5364 54.0155 52.3114C54.2648 52.0863 54.4146 51.771 54.4316 51.4352V51.3785C54.604 50.6823 54.1828 49.9774 53.489 49.801C53.3328 49.7559 53.1709 49.7336 53.0083 49.7349H50.0297C49.9071 49.7349 49.86 49.7349 49.86 49.8955C49.86 50.7645 49.86 51.6335 49.86 52.5026C49.86 52.6348 49.86 52.6632 50.0297 52.6537L51.5661 52.6348Z" fill="white"/>
<path d="M24.6929 35.1409H23.5618C23.4304 35.1587 23.3073 35.0724 23.279 34.9425C23.0151 34.1774 22.7135 33.4217 22.4495 32.666C22.4258 32.5479 22.314 32.4691 22.195 32.4865H18.0099C17.8858 32.4692 17.7698 32.5522 17.746 32.6755C17.4726 33.4311 17.1899 34.1774 16.9165 34.933C16.9051 35.0013 16.8666 35.0619 16.8097 35.1011C16.7528 35.1403 16.6825 35.1546 16.6149 35.1409H14.4375C14.1641 35.1409 14.1641 35.1409 14.2584 34.8953L17.9157 25.8082C18.2267 25.0148 18.5566 24.2308 18.8583 23.4373C18.8775 23.3258 18.9823 23.2502 19.0939 23.2673C19.782 23.2673 20.4795 23.2673 21.1676 23.2673C21.2795 23.244 21.3891 23.3158 21.4127 23.4278L26.022 34.9614C26.088 35.122 26.022 35.1409 25.89 35.1409H24.6929ZM20.1025 26.2616L20.0459 26.3561L18.7263 30.0684C18.6697 30.2289 18.7263 30.2384 18.8583 30.2384H21.309C21.5164 30.2384 21.5069 30.1723 21.4504 30.0211C21.243 29.4638 21.0451 28.9065 20.8471 28.3492C20.6492 27.7919 20.3476 26.9701 20.1025 26.2616Z" fill="#FFD530"/>
<path d="M59.0411 53.1826C59.0411 51.3689 59.0411 49.5553 59.0411 47.7417C59.0411 47.5339 59.1071 47.4961 59.2956 47.5055C60.5493 47.5055 61.8124 47.5055 63.066 47.5055C63.8326 47.5137 64.5906 47.6676 65.3 47.9589C66.5071 48.419 67.4377 49.4073 67.8261 50.6416C68.3483 52.1725 68.3483 53.8337 67.8261 55.3646C67.385 56.714 66.3755 57.8017 65.0643 58.3401C64.2011 58.7103 63.2696 58.8937 62.3308 58.8785H59.2391C59.06 58.8785 59.0411 58.8218 59.0411 58.6707V53.1826ZM61.3128 53.1826V56.4603C61.3128 56.5453 61.2562 56.6681 61.4259 56.6681C62.0553 56.6923 62.6856 56.667 63.3111 56.5926C64.5211 56.4512 65.5048 55.5492 65.7524 54.3539C65.9268 53.5828 65.9268 52.7824 65.7524 52.0113C65.599 50.8477 64.6731 49.9393 63.509 49.8103C62.8464 49.7269 62.1783 49.6953 61.5107 49.7159C61.3222 49.7159 61.2845 49.782 61.2845 49.9615C61.3128 51.0194 61.3128 52.0963 61.3128 53.1731V53.1826Z" fill="white"/>
<path d="M40.9997 19.5832H67.9485C68.1653 19.5832 68.2502 19.5832 68.2219 19.8571C68.1936 20.1311 68.2219 20.3011 68.2219 20.5278C68.2219 20.7545 68.2219 20.6789 68.0899 20.6695H14.0603C13.8435 20.6695 13.7587 20.6222 13.7775 20.3861C13.7964 20.1724 13.7964 19.9575 13.7775 19.7438C13.7775 19.621 13.7775 19.5549 13.9378 19.5737H40.9997V19.5832Z" fill="#FFD530"/>
<path d="M21.2052 52.9748H23.0903C23.1752 52.9748 23.26 52.9748 23.26 53.0881C23.2882 53.8826 23.2599 54.6781 23.1752 55.4685C22.8814 57.4988 21.1503 59.0087 19.1032 59.0202C17.762 59.1703 16.4224 58.7251 15.4365 57.8017C14.6615 57.0542 14.1377 56.0836 13.9377 55.0245C13.5891 53.5888 13.6645 52.0825 14.1545 50.6888C14.7065 48.8792 16.283 47.5745 18.1606 47.3733C19.0184 47.2504 19.8933 47.3446 20.7056 47.6472C21.777 48.0983 22.618 48.9684 23.0338 50.056C23.0338 50.1504 23.0338 50.1788 22.9772 50.2071L20.9884 51.01C20.8752 51.01 20.847 51.01 20.8093 50.925C20.6797 50.6539 20.5078 50.4052 20.3003 50.1882C19.3174 49.3031 17.8059 49.3791 16.9163 50.3582C16.8421 50.4422 16.7728 50.5305 16.709 50.6227C16.1608 51.5117 15.9283 52.5602 16.0492 53.5982C16.0739 54.3144 16.2781 55.0128 16.643 55.6291C17.4052 56.8217 18.976 57.1901 20.1871 56.4603C20.6305 56.1895 20.9258 55.7301 20.9884 55.2135C20.9884 55.0812 20.9318 55.1001 20.847 55.1001H19.3671C19.2257 55.1001 19.1786 55.1001 19.1786 54.9206C19.1786 54.3255 19.1786 53.7399 19.1786 53.1542C19.1786 52.9842 19.2351 52.9653 19.3859 52.9653L21.2052 52.9748Z" fill="white"/>
<path d="M40.9808 62.7514H14.0603C13.834 62.7514 13.7586 62.7041 13.7775 62.4774C13.7963 62.2543 13.7963 62.0299 13.7775 61.8068C13.7775 61.7028 13.7775 61.6556 13.9189 61.6651H67.9203C68.269 61.6651 68.2125 61.6651 68.2219 61.9579V62.6097C68.2219 62.7136 68.2219 62.7608 68.0805 62.7419H40.9808V62.7514Z" fill="#FFD530"/>
<path d="M25.0323 51.1328V47.7417C25.0323 47.5622 25.0323 47.4961 25.2586 47.5055H27.0683C27.2569 47.5055 27.3134 47.5055 27.3134 47.7417C27.3134 49.782 27.3134 51.8192 27.3134 53.8532C27.2783 54.534 27.4421 55.2102 27.7847 55.7991C28.1645 56.4727 28.9004 56.8636 29.6699 56.8004C30.817 56.7834 31.7596 55.8881 31.8379 54.7411C31.8947 54.4295 31.9231 54.1133 31.9227 53.7965V47.7417C31.9227 47.5622 31.9227 47.5055 32.1489 47.5055C32.7522 47.5055 33.3649 47.5055 33.9776 47.5055C34.1284 47.5055 34.1944 47.5055 34.1944 47.7133C34.1944 49.8198 34.1944 51.9168 34.1944 54.0232C34.2015 54.8099 34.0641 55.5912 33.7891 56.3281C33.301 57.7427 32.0633 58.7642 30.5842 58.9729C29.6378 59.1543 28.6599 59.0727 27.7564 58.7368C26.4383 58.2117 25.4763 57.052 25.202 55.6574C25.0577 55.0799 24.988 54.4863 24.9946 53.891C25.0323 52.9653 25.0323 52.049 25.0323 51.1328Z" fill="white"/>
<path d="M44.7607 58.8596H43.7239C43.6637 58.8735 43.6006 58.8622 43.5489 58.8283C43.4973 58.7945 43.4618 58.7409 43.4505 58.6801C43.2054 57.9622 42.9415 57.2443 42.6964 56.517C42.6726 56.3937 42.5566 56.3107 42.4325 56.3281C41.1757 56.3281 39.9189 56.3281 38.6621 56.3281C38.5432 56.3106 38.4314 56.3895 38.4076 56.5076C38.1625 57.2254 37.8986 57.9433 37.6535 58.6707C37.6296 58.8034 37.5034 58.8919 37.3708 58.869H35.4856C35.2028 58.869 35.2028 58.869 35.297 58.614C36.0888 56.5548 36.8712 54.4861 37.663 52.4269C38.2662 50.8494 38.8695 49.2814 39.4633 47.7039C39.4725 47.6434 39.5058 47.5892 39.5555 47.5536C39.6052 47.518 39.6671 47.5041 39.7272 47.515H41.5559C41.6719 47.4969 41.7824 47.5707 41.8104 47.685C43.1991 51.35 44.5879 55.0119 45.9767 58.6707C46.0426 58.8313 46.0238 58.8785 45.8447 58.869L44.7607 58.8596ZM41.8387 54.1366C41.4051 52.8708 40.9432 51.6523 40.5567 50.3582C40.1703 51.624 39.6895 52.8425 39.2654 54.1366H41.8387Z" fill="white"/>
<path d="M61.5201 28.3963L61.6709 28.1602L64.4987 23.4372C64.559 23.3071 64.696 23.2308 64.838 23.2483H67.1945C67.2511 23.2483 67.3453 23.2483 67.3831 23.2483C67.4208 23.2483 67.3831 23.3805 67.2982 23.4372C65.8278 25.6853 64.351 27.9303 62.868 30.1722C62.7676 30.3196 62.715 30.4944 62.7172 30.6728C62.7172 32.0708 62.7172 33.5066 62.7172 34.8668C62.7172 35.0368 62.7172 35.103 62.5004 35.0935H60.4832C60.3041 35.0935 60.2476 35.0935 60.2476 34.8668C60.2476 33.4783 60.2476 32.0802 60.2476 30.6917C60.2472 30.5311 60.2015 30.3739 60.1156 30.2383C58.6389 27.9775 57.1622 25.72 55.6854 23.4655C55.6854 23.3994 55.544 23.3333 55.5912 23.2577C55.6383 23.1821 55.742 23.2577 55.8268 23.2577C56.5997 23.2577 57.3821 23.2577 58.1645 23.2577C58.3164 23.2408 58.4616 23.3251 58.5226 23.4655C59.4652 25.0713 60.4078 26.6677 61.4353 28.2735L61.5201 28.3963Z" fill="#FFD530"/>
<path d="M35.1274 70.412C35.2163 70.3837 35.3118 70.3837 35.4007 70.412H39.3879C39.5203 70.4288 39.6418 70.3364 39.6613 70.2041C40.0666 68.9289 40.4813 67.6632 40.8866 66.4258L40.9621 66.2085C41.0469 66.2652 41.0469 66.3502 41.0752 66.4258C41.4899 67.6915 41.9047 68.9667 42.31 70.2041C42.3294 70.3313 42.4467 70.4194 42.5739 70.4025C43.903 70.4025 45.232 70.4025 46.5611 70.4025H46.8062C46.8062 70.5159 46.693 70.5442 46.6271 70.5914L43.4411 72.9057C43.2946 72.9778 43.232 73.1536 43.2997 73.3024C43.7239 74.5871 44.1386 75.8717 44.5533 77.1564C44.5758 77.2182 44.5947 77.2813 44.6099 77.3453L44.3837 77.1847C43.3091 76.4007 42.2251 75.6261 41.16 74.8327C41.0589 74.7391 40.9029 74.7391 40.8018 74.8327L37.597 77.1658L37.3896 77.3075C37.3331 77.232 37.3896 77.1753 37.3896 77.1186C37.7949 75.8434 38.2002 74.5776 38.6244 73.3402C38.6605 73.2728 38.6678 73.1936 38.6448 73.1206C38.6217 73.0477 38.5701 72.9872 38.5019 72.9529L35.363 70.6009L35.1274 70.412Z" fill="#FFD530"/>
<path d="M18.8205 42.282C18.7734 40.8084 18.8205 39.382 18.8205 37.9557C18.8205 37.7479 18.8865 37.7007 19.0844 37.7101H20.1496C20.2815 37.7101 20.3287 37.7101 20.3287 37.8801C20.3287 40.1661 20.3287 42.4614 20.3287 44.7474C20.3287 44.8796 20.3287 44.9174 20.1684 44.9079H19.1033C19.0074 44.916 18.9143 44.873 18.8582 44.7946C17.8214 43.2927 16.7374 41.838 15.7382 40.3172L15.644 40.2133V40.4211C15.644 41.8474 15.644 43.2549 15.644 44.7096C15.644 44.8702 15.644 44.9268 15.4366 44.9174H14.3055C14.1829 44.9174 14.1358 44.9174 14.1358 44.7568C14.1358 42.4614 14.1358 40.1755 14.1358 37.8801C14.1358 37.7573 14.1358 37.7101 14.296 37.7101H15.4554C15.5874 37.7101 15.6345 37.7762 15.7005 37.8612C16.7091 39.3159 17.7554 40.695 18.7357 42.2064C18.7586 42.2371 18.7874 42.2628 18.8205 42.282Z" fill="white"/>
<path d="M51.4531 42.2347V37.9084C51.4531 37.7667 51.4531 37.7006 51.6322 37.7101H52.7822C52.9141 37.7101 52.9424 37.7101 52.9424 37.8801V44.7473C52.9424 44.8701 52.9424 44.9173 52.7916 44.9173H51.783C51.66 44.9264 51.5427 44.864 51.4814 44.7568C50.4351 43.2548 49.3511 41.7813 48.3331 40.2699C48.2577 40.2699 48.3331 40.3644 48.3331 40.4116C48.3331 41.8474 48.3331 43.2454 48.3331 44.7001C48.3331 44.8607 48.3331 44.9268 48.1352 44.9173C47.7581 44.9173 47.3905 44.9173 47.0135 44.9173C46.8909 44.9173 46.825 44.9173 46.825 44.7473C46.825 42.4614 46.825 40.1692 46.825 37.8706C46.825 37.7478 46.825 37.7101 46.9946 37.7101H48.1069C48.2252 37.7101 48.334 37.7754 48.3897 37.8801L51.4531 42.2347Z" fill="white"/>
<path d="M45.4959 41.2807C45.5145 41.9048 45.4022 42.5259 45.166 43.1038C44.6692 44.3213 43.4498 45.0827 42.1403 44.993C40.4924 45.0129 39.1115 43.7489 38.9826 42.1025C38.8705 41.3646 38.9154 40.6113 39.1145 39.8921C39.4718 38.454 40.806 37.4791 42.2817 37.5779C43.9533 37.56 45.3438 38.8619 45.4394 40.5345C45.4788 40.7812 45.4977 41.0308 45.4959 41.2807ZM40.4813 41.2807C40.4623 41.8412 40.5959 42.3963 40.8678 42.8865C41.3858 43.6246 42.4028 43.8022 43.1394 43.2832C43.3002 43.1693 43.4405 43.0287 43.5542 42.8676C44.1112 41.8968 44.1112 40.7024 43.5542 39.7315C43.3238 39.3657 42.9567 39.1078 42.5351 39.0155C42.1134 38.9231 41.6724 39.0041 41.3108 39.2404C41.1129 39.3725 40.9431 39.5427 40.8112 39.741C40.5572 40.2131 40.4335 40.7447 40.453 41.2807H40.4813Z" fill="white"/>
<path d="M60.5775 44.9079H59.9271C59.8258 44.9251 59.7294 44.8579 59.7103 44.7567C59.5595 44.3222 59.3898 43.8972 59.239 43.4532C59.2199 43.352 59.1235 43.2848 59.0222 43.3021H56.5243C56.4282 43.2847 56.336 43.3478 56.3169 43.4437C56.1567 43.8877 55.987 44.3222 55.8362 44.7567C55.8134 44.8512 55.7256 44.9152 55.6288 44.9079H54.3375C54.1772 44.9079 54.1678 44.9079 54.2244 44.7284C55.167 42.433 56.1096 40.1471 56.9862 37.8517C57.0168 37.7543 57.1109 37.6914 57.2124 37.7006C57.5894 37.7006 57.9665 37.7006 58.3529 37.7006C58.4571 37.6925 58.5522 37.76 58.5792 37.8612C59.4841 40.1471 60.3984 42.433 61.3221 44.719C61.3881 44.8984 61.3221 44.9173 61.1807 44.9079H60.5775ZM57.7497 39.5142C57.4669 40.3171 57.2124 41.0539 56.939 41.7813C56.939 41.9229 56.939 41.9418 57.0616 41.9418H58.4378C58.598 41.9418 58.6074 41.9418 58.5603 41.7624C58.5132 41.5829 58.4283 41.4129 58.3718 41.2428C58.1738 40.6855 57.9665 40.1282 57.7497 39.5142Z" fill="white"/>
<path d="M27.926 44.9078H27.417C27.2375 44.9562 27.0526 44.8509 27.0022 44.6717C26.8797 44.275 26.7194 43.9066 26.5875 43.5193C26.564 43.4105 26.4622 43.3371 26.3518 43.3492H23.9105C23.7989 43.3322 23.6941 43.4077 23.6749 43.5193C23.5335 43.9349 23.3638 44.3505 23.2224 44.7756C23.1942 44.8993 23.0735 44.9786 22.9491 44.9551H21.752C21.5729 44.9551 21.5352 44.9551 21.6106 44.7567L23.3072 40.5438C23.656 39.6842 24.0048 38.8152 24.3441 37.9461C24.3576 37.8821 24.3961 37.8262 24.451 37.7907C24.5058 37.7553 24.5725 37.7432 24.6363 37.7572H25.7014C25.8081 37.7338 25.9136 37.8014 25.9371 37.9084C26.8797 40.2037 27.7657 42.4897 28.6895 44.785C28.7554 44.9551 28.6895 44.9645 28.5575 44.9551L27.926 44.9078ZM25.0982 39.5142C24.8154 40.3076 24.5515 41.0539 24.2781 41.8001C24.2781 41.904 24.2781 41.9418 24.3818 41.9418H25.8051C25.9182 41.9418 25.9559 41.9418 25.9182 41.8001C25.7014 41.0539 25.4092 40.3076 25.1265 39.5142H25.0982Z" fill="white"/>
<path d="M31.4513 37.71H34.1848C34.3356 37.71 34.3922 37.71 34.3827 37.8989C34.3827 38.2515 34.3827 38.601 34.3827 38.9474C34.3827 39.0891 34.3827 39.1363 34.1942 39.1363H32.441C32.2525 39.1363 32.1771 39.1363 32.1865 39.3913C32.1865 41.1577 32.1865 42.9241 32.1865 44.7C32.1865 44.8889 32.1299 44.9361 31.9508 44.9267C31.6023 44.9078 31.2531 44.9078 30.9046 44.9267C30.716 44.9267 30.6595 44.9267 30.6595 44.6811C30.6595 42.9147 30.6595 41.1483 30.6595 39.3819C30.6595 39.1741 30.6029 39.1363 30.4144 39.1363C29.83 39.1363 29.2362 39.1363 28.6517 39.1363C28.5198 39.1363 28.4727 39.1363 28.4727 38.9663C28.4727 38.6073 28.4727 38.2484 28.4727 37.8894C28.4727 37.7383 28.5292 37.71 28.6706 37.71H31.4513Z" fill="white"/>
<path d="M62.5286 41.2901V37.9179C62.5286 37.7573 62.5286 37.7007 62.7359 37.7101H63.8482C64.0273 37.7101 64.0556 37.7101 64.0556 37.9179C64.0556 39.6938 64.0556 41.4602 64.0556 43.236C64.0556 43.4533 64.1216 43.5005 64.3289 43.5005H67.6374C67.8071 43.5005 67.8637 43.5005 67.8542 43.7083C67.8542 44.0578 67.8542 44.4073 67.8542 44.7568C67.8542 44.8796 67.8542 44.9268 67.694 44.9268H62.6982C62.5286 44.9268 62.5286 44.8324 62.5286 44.719V41.2901Z" fill="white"/>
<path d="M35.8342 41.2995V37.9084C35.8342 37.7383 35.8342 37.7006 36.0416 37.7006C36.4027 37.7195 36.7645 37.7195 37.1256 37.7006C37.3047 37.7006 37.3518 37.7478 37.3518 37.9273C37.3518 39.2497 37.3518 40.5721 37.3518 41.8946C37.3518 42.8392 37.3518 43.7838 37.3518 44.7284C37.3518 44.8984 37.3518 44.9362 37.135 44.9362H36.0699C35.9191 44.9362 35.8719 44.9362 35.8719 44.7378C35.8342 43.576 35.8342 42.4424 35.8342 41.2995Z" fill="white"/>
<path d="M32.8556 28.6231H31.1589C31.0269 28.6231 30.9798 28.6231 30.9798 28.4531C30.9798 27.5085 30.9798 26.6394 30.9798 25.7232C30.9798 25.6004 30.9798 25.5626 31.1495 25.5626H34.3543C34.7819 25.5349 35.2055 25.6586 35.5514 25.9121C35.9877 26.318 36.1527 26.9389 35.9756 27.5085C35.8803 28.0482 35.4514 28.4666 34.9104 28.5475C34.6624 28.598 34.4094 28.6202 34.1563 28.6136L32.8556 28.6231Z" fill="#030000"/>
<path d="M51.5663 52.6347H50.0299C49.9073 52.6347 49.8602 52.6347 49.8696 52.4741V49.867C49.8696 49.7347 49.8696 49.7064 50.0299 49.7064H52.9708C53.1334 49.7046 53.2954 49.7269 53.4515 49.7725C53.7911 49.8449 54.0878 50.0503 54.2754 50.343C54.4631 50.6357 54.5262 50.9915 54.4507 51.3311C54.4352 52.0317 53.8585 52.5885 53.1593 52.578C52.6503 52.578 52.1413 52.578 51.6229 52.578L51.5663 52.6347Z" fill="#030000"/>
<path d="M20.1024 26.2616C20.3474 26.97 20.5925 27.6596 20.847 28.3492L21.4408 30.0305C21.4974 30.1817 21.5068 30.2478 21.3089 30.2478C20.4888 30.2478 19.6688 30.2478 18.8581 30.2478C18.7262 30.2478 18.6696 30.2478 18.7167 30.0778C19.1692 28.8403 19.6028 27.6029 20.0458 26.3655L20.1024 26.2616Z" fill="#030000"/>
<path d="M61.3128 53.1731V49.9426C61.3128 49.7725 61.3128 49.7064 61.5391 49.7064C62.2066 49.6862 62.8747 49.7178 63.5374 49.8009C64.6983 49.9363 65.621 50.8415 65.7807 52.0018C65.9597 52.7723 65.9597 53.5738 65.7807 54.3444C65.5287 55.5518 64.5262 56.4571 63.3017 56.5831C62.6759 56.6531 62.0459 56.6783 61.4165 56.6586C61.2468 56.6586 61.294 56.5358 61.294 56.4508L61.3128 53.1731Z" fill="#030000"/>
<path d="M41.8483 54.165H39.2656C39.6992 52.9182 40.2082 51.6902 40.5569 50.3867C40.9434 51.6713 41.4147 52.8993 41.8483 54.165Z" fill="#030000"/>
<path d="M40.4529 41.2996C40.4256 40.7662 40.5394 40.235 40.7828 39.7599C41.0085 39.384 41.3771 39.1163 41.8037 39.0184C42.2304 38.9204 42.6785 39.0005 43.045 39.2403C43.239 39.3671 43.403 39.5347 43.5257 39.7315C44.087 40.6978 44.087 41.8918 43.5257 42.8581C43.0171 43.5985 42.0093 43.7921 41.2635 43.2926C41.1005 43.1814 40.9598 43.0404 40.8488 42.877C40.5693 42.3998 40.432 41.8525 40.4529 41.2996Z" fill="#030000"/>
<path d="M57.7498 39.5142C57.9666 40.1282 58.1739 40.6855 58.3719 41.2428C58.4378 41.4223 58.4944 41.5923 58.5604 41.7624C58.6264 41.9324 58.5604 41.9418 58.4473 41.9418H57.0617C56.9391 41.9418 56.892 41.9418 56.9485 41.7813C57.2125 41.0539 57.467 40.3171 57.7498 39.5142Z" fill="#030000"/>
<path d="M25.1264 39.5142C25.4092 40.3077 25.6825 41.0539 25.9464 41.8002C25.9464 41.9135 25.9464 41.9418 25.8333 41.9418H24.41C24.2875 41.9418 24.2686 41.9418 24.3063 41.8002C24.5797 41.0539 24.8436 40.3077 25.1264 39.5142Z" fill="#030000"/>
</svg>
