<svg width="187" height="30" viewBox="0 0 187 30" fill="none" xmlns="http://www.w3.org/2000/svg">
<path d="M106.19 -6.10352e-05L95.2852 29.5457H102.075L104.214 23.6204H115.819L117.959 29.5457H124.913L114.049 -6.10352e-05H106.19ZM109.976 7.61282L113.72 17.9419H106.272L109.976 7.61282Z" fill="white"/>
<path d="M166.383 29.5458H172.967V17.1593C172.967 14.6082 174.736 13.3326 176.547 13.3326C178.687 13.3326 179.592 14.9376 179.592 17.1188V29.5458H186.177V15.2257C186.177 10.4934 183.378 7.40729 178.934 7.40729C176.177 7.40729 174.16 8.64155 172.967 10.041V7.8597H166.383V29.5458Z" fill="white"/>
<path d="M154.718 29.999C159.039 29.999 162.989 27.8178 164.594 23.6617L159.08 21.8925C158.462 23.7856 156.858 24.773 154.8 24.773C152.29 24.773 150.521 23.0854 150.068 20.1232H164.759V18.3952C164.759 12.2635 161.179 7.40814 154.595 7.40814C148.01 7.40814 143.73 12.2635 143.73 18.6834C143.73 25.4318 148.175 29.9999 154.718 29.9999V29.999ZM154.512 12.5095C156.94 12.5095 158.216 14.1557 158.257 16.0892H150.273C150.932 13.7024 152.496 12.5095 154.512 12.5095Z" fill="white"/>
<path d="M132.651 -0.00012207H126.066V29.5457H132.651V-0.00012207Z" fill="white"/>
<path d="M142.104 -6.10352e-05H135.52V29.5457H142.104V-6.10352e-05Z" fill="white"/>
<path d="M46.5007 18.7238C46.5007 11.9754 42.0153 7.40729 35.6367 7.40729C29.258 7.40729 24.7734 11.9754 24.7734 18.7238C24.7734 25.4723 29.2176 29.9991 35.6367 29.9991C42.0557 29.9991 46.5007 25.4723 46.5007 18.7238ZM31.3163 18.7238C31.3163 14.9376 33.0039 12.7985 35.6367 12.7985C38.2694 12.7985 39.9579 14.9385 39.9579 18.7238C39.9579 22.5092 38.2703 24.6491 35.6367 24.6491C33.003 24.6491 31.3163 22.5092 31.3163 18.7238Z" fill="white"/>
<path d="M88.7582 24.1141H78.7172L88.6756 12.6333V7.85962H70.4051V13.2912H80.6516L70.2812 24.772V29.5457H88.7582V24.1141Z" fill="white"/>
<path d="M69.3766 18.7239C69.3766 11.9754 64.8911 7.40735 58.5125 7.40735C52.1339 7.40735 47.6484 11.9754 47.6484 18.7239C47.6484 25.4723 52.0926 29.9991 58.5125 29.9991C64.9324 29.9991 69.3766 25.4723 69.3766 18.7239ZM54.1913 18.7239C54.1913 14.9377 55.8789 12.7986 58.5117 12.7986C61.1444 12.7986 62.8329 14.9385 62.8329 18.7239C62.8329 22.5092 61.1453 24.6492 58.5117 24.6492C55.878 24.6492 54.1913 22.5092 54.1913 18.7239Z" fill="white"/>
<path d="M0 29.5458H13.4565C19.7938 29.5458 23.4974 26.4597 23.4974 21.2337C23.4974 17.6943 21.44 15.2258 18.6421 14.1971C20.5765 13.3739 22.6339 11.3578 22.6339 7.94231C22.633 2.79795 19.1762 0 12.715 0H0V29.5458ZM6.58417 11.8515V5.63806H12.0158C14.6907 5.63806 16.1718 6.66676 16.1718 8.72415C16.1718 10.7815 14.6907 11.8515 12.0158 11.8515H6.58417ZM6.58417 17.2006H12.8389C15.4726 17.2006 16.9133 18.5587 16.9133 20.5335C16.9133 22.5083 15.4726 23.8664 12.8389 23.8664H6.58417V17.1997V17.2006Z" fill="white"/>
</svg>
