<?xml version="1.0" encoding="UTF-8"?>
<svg id="Layer_1" xmlns="http://www.w3.org/2000/svg" version="1.1" viewBox="0 0 3687.11 1173.33">
  <!-- Generator: Adobe Illustrator 30.3.0, SVG Export Plug-In . SVG Version: 2.1.3 Build 182)  -->
  <defs>
    <style>
      .st0 {
        fill: #0c3e8d;
      }

      .st1 {
        fill: #f99b27;
      }
    </style>
  </defs>
  <path class="st0" d="M965.23,313.55v149.6l93.4-149.6h81l-104.7,151.8,116.5,175.8h-86.8l-99.4-171.1v171.1h-67.5v-327.6h67.5Z"/>
  <path class="st0" d="M1286.43,313.55v327.6h-68.9v-327.6h68.9Z"/>
  <path class="st0" d="M1462.73,313.55l62.8,131.2c16.5,35,29.2,69.4,35.8,92.9-2.5-25.4-4.7-67.5-5.2-90.1l-1.4-133.9h62.8v327.5h-68.9l-56.2-125.4c-18.4-41.1-38.3-87.4-44.3-107.5,2.5,27,2.8,65.6,3.3,92.9l1.9,140h-63.6v-327.6h73Z"/>
  <path class="st0" d="M1905.93,313.55l-8.5,53.7h-112.1v76.1h93.9v53.7h-92.8v87.6h124v56.5h-190.9v-327.6h186.4Z"/>
  <path class="st0" d="M2167.03,377.25c-16.5-12.4-33.9-18.5-52.3-18.5-22,0-43.8,10.7-55.6,28.4-12.7,18.7-18.5,46.3-18.5,84.3,0,44.9,3.9,69.7,13.8,87.6,13.2,24,35,36.6,63.1,36.6,19.3,0,36.6-5.8,56.2-21.2l30.3,41.6c-25.9,21.2-53.7,30.6-90.9,30.6-45.2,0-80.2-14.6-107.2-45.2-26.4-29.8-39.7-69.4-39.7-117.4,0-41.1,7.2-73.6,22-102,25.3-47.7,72.7-75.8,125.3-75.8,32.5,0,65,10.5,82.9,25.9l-29.4,45.1Z"/>
  <path class="st0" d="M2487.63,313.55l-10.8,54.8h-78.2v273.1h-66.9v-273.1h-80.2v-54.8h236.1Z"/>
  <path class="st0" d="M2615.73,366.45h23.7c16,0,29.7,1.9,37.2,4.7,15.4,5.8,23.4,19.8,23.4,40.2,0,13.8-4.7,25.4-12.7,33.1-9.1,8-21.2,10.7-49.6,10.7h-22v-88.7h0ZM2551.23,313.55v327.6h64.5v-136.6c4.1.6,7.2,1.4,10.5,2.8,11.8,5.2,21.8,21.2,54.3,80.2,12.7,23.1,17.9,32,30.6,53.7h77.7s-59.8-103.9-78.8-127.3c-4.1-5.8-7.2-8.5-13.8-13.8,40.5-.8,73-41.6,73-90.7,0-57.6-38.3-96.2-96.1-96.2h-121.8v.3h-.1Z"/>
  <path class="st0" d="M2926.13,313.55v327.6h-68.9v-327.6h68.9Z"/>
  <path class="st0" d="M3205.13,377.25c-16.5-12.4-33.9-18.5-52.3-18.5-22,0-43.8,10.7-55.6,28.4-12.7,18.7-18.4,46.3-18.4,84.3,0,44.9,3.8,69.7,13.8,87.6,13.2,24,35,36.6,63.1,36.6,19.3,0,36.9-5.8,56.2-21.2l30.3,41.6c-25.9,21.2-53.7,30.6-90.9,30.6-45.2,0-80.2-14.6-106.9-45.2-26.4-29.8-39.7-69.4-39.7-117.4,0-41.1,7.2-73.6,22-102,25.3-47.7,72.7-75.8,125.3-75.8,32.5,0,65,10.5,82.9,25.9l-29.8,45.1Z"/>
  <path class="st0" d="M3494.33,383.85c-29.8-17.9-51.8-25.1-76.3-25.1-27,0-45.7,15.4-45.7,37.8,0,17.1,8.8,25.4,36.4,33.1l39.7,10.7c53.7,14.6,82.9,49,82.9,97.5,0,66.4-53.7,110.2-135.2,110.2-37.2,0-78.8-10.7-111.8-29.8l24.5-51.5c30.6,16,57,26.5,90.1,26.5,37.7,0,57.6-15.4,57.6-44.9,0-21.2-13.8-34.4-43-42.4l-36.4-9.9c-32.5-8.8-52.9-21.8-64.4-41.6-9.1-14.6-13.8-31.7-13.8-49.9,0-59.8,48.2-101.4,117.3-101.4,39.9,0,80.7,12.1,109.4,33.1l-31.3,47.6Z"/>
  <path class="st1" d="M642.53,192.05c-112-2.6-288.2,81.5-287,80.2,18.3-19.2,53.6-59.5,56.2-73.9,1.6-3-.5-6.1-.5-6.1-2.6-8.1-27.4-30.3-28.8-31.7-1.7-1.1-1.9.3-1.9.3-9.8,34.2-109.8,114.5-100.6,152.9,19.2,62.3,74.9,60.1,74.9,60.1,27.7,2.6,85.6-7.5,113.1,1.7.2,0,.2.2.2.2.8-.2.3-1.8.3-1.8-7.4-14.7-22.3-34.3-30.3-35.7-53.3-10.3-64.6,3.6-125.3-3.6.8-10,24.4-40.1,24.5-40.8,8.1,11.8,11.3,18.9,23.4,27.4,2.6,1.6,4.9-.5,4.9-.5,50.2-27.5,112.7-49.4,112.7-49.4,106.2-38.8,194.8-55.4,249.1-30.4,14.8,48.2-27.3,118.9-34,130.1-54.7,94.9-320.5,340.3-529.3,420.1h145c54.8-13.6,573.9-400.7,425.6-559.1-23.3-23.6-42.6-39.3-92.2-40Z"/>
  <path class="st1" d="M271.53,503.15c-19.9-9.8-51.8-54.5-50.6-66.1,20.8-112.7-36.2-236-39.2-252.2,0,0-3.4-6.5,5.6-1.7,11.6,10.5,21.5,20.5,37.9,44.6,9.6,11,74.2,174.8,46.3,275.4Z"/>
  <path class="st0" d="M983.27,943.91c0,7.63.25,15.46,1.73,22.89h-10.88l-1.74-13.86h-.49c-5.93,7.44-19.05,16.06-38.1,16.06-24,0-34.89-13.65-34.89-26.5,0-22.28,24-35.73,72.49-35.33v-2.61c0-9.43-2.23-28.51-30.43-28.31-10.39,0-21.28,2.21-29.94,7.23l-3.71-7.02c10.89-5.82,24.25-8.23,34.89-8.23,34.39,0,41.07,20.88,41.07,37.95v37.74ZM971.4,915.2c-25.98-.6-60.12,2.61-60.12,25.7,0,13.86,11.38,20.07,23.75,20.07,19.79,0,31.17-9.84,35.13-19.27.99-2.01,1.24-4.22,1.24-5.82v-20.68Z"/>
  <path class="st0" d="M1806.61,964.33c-5.19,2.01-17.56,6.22-34.88,6.22-34.14,0-56.9-20.28-56.9-49.19,0-30.72,25.72-51.39,61.1-51.39,14.6,0,26.72,3.42,31.17,6.03l-4.2,7.83c-5.69-2.81-14.85-5.62-27.96-5.62-31.92,0-48.24,19.67-48.24,42.36,0,25.29,19.55,41.75,47.01,41.75,14.1,0,23.26-3.21,29.69-5.61l3.21,7.63Z"/>
  <path class="st0" d="M1885.79,970.75c-30.68,0-54.43-19.47-54.43-49.59,0-32.92,26.71-51.19,56.16-51.19,32.9,0,55.18,20.08,55.18,49.59,0,35.73-30.43,51.19-56.66,51.19h-.25ZM1886.53,962.72c24.74,0,44.29-18.07,44.29-42.76,0-17.67-12.13-41.96-43.55-41.96s-44.04,21.89-44.04,42.57c0,24.09,18.81,42.15,43.05,42.15h.25Z"/>
  <path class="st0" d="M1979.07,895.27c0-8.84-.25-15.46-.99-23.1h11.14l.74,16.87h.49c7.67-11.04,19.05-19.08,38.59-19.08,16.33,0,28.95,8.84,34.15,20.88h.49c3.21-5.62,7.67-10.04,12.12-13.05,7.67-5.02,15.59-7.83,28.21-7.83,11.63,0,38.85,5.22,38.85,41.76v56.82h-11.88v-56.01c0-21.69-10.39-34.53-30.93-34.53-14.85,0-26.48,9.04-31.17,19.08-.99,2.81-1.98,6.02-1.98,9.63v61.83h-11.88v-60.42c0-17.27-10.15-30.12-29.44-30.12-15.83,0-28.45,10.44-32.9,21.69-.99,2.81-1.73,6.02-1.73,9.43v59.43h-11.88v-73.27Z"/>
  <path class="st0" d="M2187.64,902.9c0-12.05-.25-21.48-.99-30.72h11.38l.74,18.27h.49c8.66-12.65,23.25-20.48,44.04-20.48,30.43,0,50.96,20.48,50.96,48.78,0,34.33-25.24,52-53.93,52-17.08,0-32.16-6.22-40.33-17.87h-.49v55.41h-11.88v-105.4ZM2199.52,930.6c0,2.61.25,5.22.99,7.63,4.95,14.85,20.78,24.49,39.1,24.49,27.21,0,42.8-17.87,42.8-43.56,0-21.68-14.85-41.16-41.81-41.16-17.33,0-34.15,9.63-39.34,25.5-.74,2.61-1.73,5.62-1.73,8.23v18.87Z"/>
  <path class="st0" d="M2404.62,945.65c0,7.63.25,15.46,1.73,22.89h-10.89l-1.73-13.86h-.49c-5.93,7.44-19.05,16.06-38.1,16.06-24,0-34.88-13.65-34.88-26.5,0-22.28,23.99-35.73,72.49-35.33v-2.61c0-9.43-2.23-28.51-30.43-28.31-10.39,0-21.27,2.21-29.94,7.23l-3.71-7.02c10.89-5.82,24.25-8.23,34.88-8.23,34.4,0,41.07,20.88,41.07,37.95v37.74ZM2392.74,916.94c-25.97-.6-60.12,2.61-60.12,25.7,0,13.86,11.38,20.07,23.76,20.07,19.79,0,31.17-9.84,35.13-19.27.99-2.01,1.24-4.22,1.24-5.82v-20.68Z"/>
  <path class="st0" d="M2449.14,895.27c0-8.84-.25-15.46-.99-23.1h11.14l.74,17.27h.49c6.43-10.84,21.52-19.48,40.83-19.48,11.37,0,41.56,4.62,41.56,40.76v57.81h-11.88v-57.02c0-17.67-8.41-33.53-32.9-33.53-16.58,0-30.93,9.63-35.62,22.29-.74,2.21-1.48,5.41-1.48,8.43v59.83h-11.88v-73.27Z"/>
  <path class="st0" d="M2580.78,872.17l31.17,63.04c3.21,6.82,6.43,14.65,8.65,20.68h.5c2.47-5.82,5.44-13.45,9.15-21.28l28.95-62.44h12.62l-35.63,71.88c-14.34,29.91-24.49,47.78-40.08,58.82-9.41,6.42-18.06,9.23-20.78,10.04l-3.72-8.03c5.94-1.8,13.61-5.22,20.79-10.64,5.93-4.82,13.86-12.85,19.79-24.3.99-2.01,1.48-3.21,1.48-4.21,0-.81-.49-2.21-1.48-4.21l-44.04-89.35h12.62Z"/>
  <g>
    <g>
      <g>
        <polygon class="st0" points="1407.05 873.84 1381.87 847.11 1375.02 847.11 1355.46 929.86 1355.11 929.86 1332.57 847.11 1297.28 847.11 1274.75 929.86 1274.4 929.86 1254.83 847.11 1214.66 847.11 1252.04 969.68 1293.09 969.68 1314.75 889.86 1315.1 889.86 1336.76 969.68 1377.86 969.68 1407.05 873.84"/>
        <path class="st0" d="M1544.76,847.11c-4.98,7.54-11.02,15.47-18.22,23.86-1,1.15-2.09,2.36-3.22,3.61h25.02v95.1h41.58v-95.1h45.77v-27.47h-90.92Z"/>
      </g>
      <path class="st0" d="M1199.62,902.39v-.34c8.91-3.26,15.37-13.22,15.37-24.72s-5.24-30.21-35.46-30.21h-103.24v122.57h99.75c38.26,0,45.25-21.97,45.25-36.56,0-17.34-8.56-27.81-21.66-30.73ZM1159.27,873.55c8.91,0,12.75,4.81,12.75,10.3s-3.84,10.47-12.75,10.47h-41.4v-20.77h41.4ZM1162.59,943.25h-44.72v-24.89h44.72c8.74,0,14.67,4.12,14.67,12.19s-5.94,12.7-14.67,12.7Z"/>
    </g>
    <path class="st0" d="M1522.69,867.67c25.71-29.97,36.68-53.7,33.53-72.55-5.71-34.01-52.2-55.99-118.44-55.99-70.99,0-147.07,24.75-203.82,66.26l.52.73c49.98-36.04,108.4-55.88,164.62-55.88s99.12,19.11,112.29,47.54c7.6,16.41,3.96,34.11-10.52,51.17l-35.83,40.25-38.26-42.07h-37.86l55.57,59.06-60.49,63.49h39.04l41.96-43.37,40.25,43.37h39.32l-60.1-62.31s25.26-24.89,38.22-39.7Z"/>
  </g>
</svg>