<?xml version="1.0" encoding="UTF-8"?> <svg xmlns="http://www.w3.org/2000/svg" id="Layer_1" version="1.1" viewBox="0 0 848.976 200"><defs><style> .st0 { fill: #125ef0; } .st1 { fill: #fff; } </style></defs><g><polyline class="st1" points="39.966 33.992 161.966 33.992 161.966 199.992 39.966 199.992 39.966 33.992"></polyline><g><path class="st0" d="M165.803,0H34.197C15.31,0,0,15.311,0,34.197v131.606c0,18.886,15.31,34.197,34.197,34.197h7.47v-100c0-32.217,26.116-58.333,58.333-58.333s58.333,26.116,58.333,58.333-26.116,58.333-58.333,58.333c-5.791,0-11.386-.844-16.667-2.416v44.082h82.47c18.886,0,34.197-15.311,34.197-34.197V34.197c0-18.886-15.311-34.197-34.197-34.197Z"></path><path class="st0" d="M100,141.667c0-23.012,18.655-41.667,41.667-41.667-23.012,0-41.667-18.655-41.667-41.667,0,23.012-18.655,41.667-41.667,41.667,23.012,0,41.667,18.655,41.667,41.667Z"></path></g></g><g><path class="st1" d="M314.496,68.485c-5.191-3.526-11.116-5.289-17.776-5.289-4.506,0-8.815.833-12.929,2.497-4.016,1.568-7.346,3.673-9.99,6.318-.368.368-.712.743-1.042,1.122l-.427-8.468h-22.332v110.333h0s23.654.001,23.654.001v-40.255c2.742,2.84,6.121,5.093,10.137,6.758,4.016,1.665,8.227,2.497,12.634,2.497,6.759,0,12.733-1.714,17.924-5.142,5.289-3.527,9.403-8.326,12.341-14.398,3.036-6.073,4.555-13.027,4.555-20.862,0-7.933-1.519-14.887-4.555-20.861-2.938-6.073-7.003-10.823-12.194-14.251ZM306.122,114.469c-1.469,3.036-3.526,5.436-6.17,7.199-2.645,1.666-5.73,2.498-9.256,2.498-3.624,0-6.758-.833-9.403-2.498-2.644-1.763-4.701-4.163-6.17-7.199-1.469-3.037-2.204-6.66-2.204-10.872,0-4.113.735-7.737,2.204-10.871,1.469-3.135,3.526-5.534,6.17-7.199,2.645-1.665,5.779-2.498,9.403-2.498s6.709.882,9.256,2.645c2.644,1.665,4.701,4.065,6.17,7.199,1.469,3.036,2.204,6.611,2.204,10.724,0,4.212-.735,7.836-2.204,10.872Z"></path><path class="st1" d="M437.836,93.756c-.686,2.449-1.225,4.653-1.616,6.611-.392,1.861-.686,3.575-.882,5.142-.082.654-.164,1.294-.245,1.931-.305-1.45-.661-2.925-1.077-4.43-.784-2.841-1.763-5.877-2.938-9.109l-14.986-40.695h-19.98l-15.279,40.695c-.882,2.742-1.616,5.387-2.204,7.933-.484,2.014-.931,4.167-1.349,6.446-.294-2.203-.723-4.496-1.297-6.886-.489-2.547-1.077-5.044-1.763-7.493l-15.425-54.065h-25.417l30.852,102.841v.002h19.687l21.194-55.548,22.881,55.548h19.098l30.852-102.841h-24.828l-15.279,53.918Z"></path><rect class="st1" x="488.986" y="64.665" width="23.507" height="78.012"></rect><path class="st1" d="M511.023,28.23c-2.448-2.155-5.876-3.232-10.284-3.232-4.309,0-7.737,1.126-10.284,3.379-2.546,2.253-3.819,5.142-3.819,8.668,0,3.918,1.224,6.954,3.672,9.109,2.547,2.057,6.024,3.085,10.431,3.085,4.31,0,7.689-1.127,10.138-3.379,2.546-2.253,3.819-5.191,3.819-8.815,0-3.82-1.224-6.758-3.673-8.815Z"></path><path class="st1" d="M594.52,66.722c-4.015-2.449-8.961-3.673-14.838-3.673-4.31,0-8.423.881-12.341,2.644s-7.297,4.114-10.137,7.052c-.467.484-.901.982-1.32,1.486l-.443-9.566h-22.331v78.012h23.506v-46.719c0-1.861.343-3.575,1.029-5.142.783-1.567,1.812-2.938,3.085-4.114,1.273-1.273,2.791-2.204,4.554-2.791,1.763-.686,3.673-1.029,5.73-1.029,2.645-.098,4.848.392,6.611,1.47,1.861.979,3.232,2.497,4.114,4.554.881,2.057,1.322,4.652,1.322,7.787v45.984h23.653v-47.895c0-6.855-1.028-12.634-3.085-17.336-2.057-4.799-5.093-8.373-9.109-10.724Z"></path><path class="st1" d="M633.271,117.995c-3.721,0-6.758,1.224-9.108,3.673-2.351,2.449-3.526,5.632-3.526,9.55,0,4.211,1.077,7.443,3.232,9.696,2.252,2.252,5.387,3.379,9.402,3.379h0c3.82,0,6.906-1.224,9.256-3.673,2.351-2.448,3.526-5.583,3.526-9.402,0-4.212-1.126-7.444-3.379-9.697-2.253-2.351-5.387-3.526-9.403-3.526Z"></path><path class="st1" d="M716.065,74.178c-1.412-1.857-3.023-3.514-4.848-4.958-2.351-1.959-5.093-3.477-8.227-4.555-3.036-1.078-6.415-1.616-10.137-1.616-6.758,0-12.782,1.763-18.071,5.289-5.289,3.428-9.452,8.178-12.487,14.251-3.037,6.072-4.555,13.075-4.555,21.008,0,7.738,1.518,14.692,4.555,20.862,3.035,6.073,7.1,10.872,12.193,14.398,5.191,3.428,11.068,5.142,17.63,5.142,3.526,0,6.856-.539,9.99-1.616,3.135-1.077,5.975-2.546,8.521-4.407,1.88-1.374,3.543-2.91,4.996-4.604v9.305h23.8v-78.012h-23.36v9.513ZM714.155,114.616c-1.469,3.036-3.526,5.387-6.17,7.052-2.645,1.666-5.779,2.498-9.403,2.498-3.526,0-6.611-.833-9.255-2.498-2.547-1.665-4.555-4.016-6.024-7.052-1.469-3.134-2.203-6.808-2.203-11.019s.734-7.835,2.203-10.871c1.469-3.135,3.477-5.534,6.024-7.199,2.644-1.763,5.729-2.645,9.255-2.645,3.624,0,6.758.882,9.403,2.645,2.644,1.665,4.701,4.064,6.17,7.199,1.47,3.036,2.204,6.659,2.204,10.871s-.734,7.885-2.204,11.019Z"></path><rect class="st1" x="760.019" y="64.665" width="23.506" height="78.012"></rect><path class="st1" d="M782.056,28.23c-2.448-2.155-5.876-3.232-10.284-3.232-4.309,0-7.737,1.126-10.284,3.379-2.546,2.253-3.82,5.142-3.82,8.668,0,3.918,1.225,6.954,3.673,9.109,2.547,2.057,6.024,3.085,10.431,3.085,4.31,0,7.689-1.127,10.137-3.379,2.547-2.253,3.82-5.191,3.82-8.815,0-3.82-1.224-6.758-3.673-8.815Z"></path><polygon class="st1" points="771.772 49.239 771.772 49.239 771.772 49.239 771.772 49.239"></polygon><polygon class="st1" points="803.253 27.713 806.61 27.713 806.61 38.216 808.192 38.216 808.192 27.713 811.541 27.713 811.541 26.386 803.253 26.386 803.253 27.713"></polygon><polygon class="st1" points="822.448 26.386 818.643 32.819 814.749 26.386 813.026 26.386 813.026 38.216 814.547 38.216 814.547 28.627 818.071 34.498 819.108 34.498 822.58 28.626 822.58 38.216 824.145 38.216 824.145 26.386 822.448 26.386"></polygon></g></svg> 